<svg width="120" height="36" viewBox="0 0 120 36" fill="none" xmlns="http://www.w3.org/2000/svg">
<path d="M45.1437 8.71167C47.8031 9.12673 50.2014 9.75899 50.2014 12.1915C50.2014 14.624 47.542 15.541 44.9552 15.541C43.2483 15.541 41.087 14.9425 40.2891 13.6491C40.211 13.5025 40.172 13.3383 40.1759 13.1724C40.1799 13.0064 40.2267 12.8443 40.3117 12.7016C40.3968 12.559 40.5173 12.4406 40.6616 12.358C40.8058 12.2754 40.969 12.2314 41.1353 12.2301H42.7455C42.7455 14.1172 43.9833 14.735 44.9745 14.735C45.9657 14.735 47.2809 14.1172 47.2809 12.2301C47.2809 11.4241 46.1736 11.1442 44.7859 10.9366C42.1072 10.5264 39.9507 9.72521 39.9507 7.55816C39.9507 5.27528 42.8518 4.37757 44.8971 4.30518C46.4154 4.30518 48.833 4.93743 49.5825 6.60254C49.6312 6.74641 49.6452 6.89973 49.6234 7.05003C49.6016 7.20033 49.5445 7.34337 49.4569 7.46752C49.3693 7.59168 49.2535 7.69344 49.1191 7.76453C48.9846 7.83563 48.8353 7.87406 48.6831 7.8767H46.9811C46.9811 5.74344 45.6659 5.10636 44.9358 5.10636C44.0945 5.10636 42.8567 5.74344 42.8567 7.51955C42.8567 8.30625 44.1138 8.58618 45.1244 8.7358L45.1437 8.71167Z" fill="white"/>
<path d="M59.5432 15.2611C60.0656 14.4155 60.3138 13.4294 60.254 12.4377V9.77837C60.254 6.99354 59.9542 5.1016 58.1555 5.1016C55.8684 5.1016 55.1576 6.99354 55.1576 9.77837V12.4377C55.135 13.2379 55.2816 14.0339 55.588 14.7737V14.8123C55.6748 14.9809 55.7751 15.1423 55.8877 15.2949L55.9264 15.3287H51.4248L51.5022 15.237C52.0246 14.3913 52.2728 13.4053 52.2129 12.4136V3.40271C52.2129 1.36115 51.4248 0.50688 51.4248 0.50688H52.7593C53.0744 0.504964 53.3867 0.565415 53.6783 0.684738C53.9698 0.804061 54.2347 0.979888 54.4577 1.20205C54.6808 1.42422 54.8574 1.68831 54.9776 1.97906C55.0977 2.2698 55.1589 2.58144 55.1576 2.89594V5.96552C55.8104 5.0292 56.5792 4.30042 58.1361 4.30042C61.9415 4.30042 63.16 6.82462 63.16 9.92798V12.4377C63.1373 13.2379 63.284 14.0339 63.5903 14.7737V14.8123C63.6771 14.9809 63.7774 15.1423 63.8901 15.2949L63.9239 15.3335H59.4271L59.5045 15.237L59.5432 15.2611Z" fill="white"/>
<path d="M76.8823 12.6595C76.8507 13.5956 77.1275 14.5163 77.6704 15.2803H75.6638C74.8756 15.2803 73.9763 14.6432 73.9763 13.8565C73.3042 14.7928 72.5257 15.5216 70.9784 15.5216C67.1779 15.5216 65.0601 12.9974 65.0601 9.88919C65.0601 6.78099 67.1779 4.26162 70.9784 4.26162C71.6224 4.25708 72.2627 4.35818 72.8738 4.56086C73.6408 4.88438 74.467 5.04461 75.2996 5.03131C76.1322 5.01802 76.9528 4.83148 77.7091 4.48363C77.1448 5.3408 76.8687 6.35512 76.9209 7.37947L76.8823 12.6595ZM70.9591 14.6625C73.2461 14.6625 73.9569 11.6701 73.9569 9.86988C73.9569 7.10436 73.2461 5.06763 70.9591 5.06763C69.1604 5.06763 67.9612 7.10436 67.9612 9.89401C67.9612 12.6837 69.1604 14.7204 70.9591 14.7204V14.6625Z" fill="white"/>
<path d="M90.8705 12.3797C90.8705 14.4164 91.6586 15.2755 91.6586 15.2755H90.59C90.0595 15.279 89.5394 15.1285 89.093 14.8423C88.6466 14.5561 88.2932 14.1466 88.0757 13.6635C87.6247 14.2483 87.0422 14.719 86.3753 15.0376C85.7083 15.3562 84.9757 15.5138 84.2365 15.4975C80.9582 15.4975 79.0435 12.9733 79.0435 9.86516C79.0435 6.75697 80.731 4.24242 84.2559 4.24242C84.9594 4.22541 85.6579 4.36618 86.2997 4.65435C86.9416 4.94253 87.5105 5.37077 87.9645 5.90752V3.3785C87.9645 1.33694 87.1764 0.482666 87.1764 0.482666H88.2256C89.5408 0.482666 90.8705 1.5493 90.8705 2.85725V12.3797ZM84.9473 14.6626C87.215 14.6626 87.9452 11.6702 87.9452 9.86998C87.9452 7.10447 87.2344 5.06773 84.9473 5.06773C83.1486 5.06773 81.9688 7.10447 81.9688 9.89412C81.9688 12.6838 83.1486 14.7205 84.9473 14.7205V14.6626Z" fill="white"/>
<path d="M104.859 4.46924C103.903 5.42454 103.128 6.54461 102.572 7.77531L98.22 17.4667C98.0181 18.0265 97.6496 18.5114 97.164 18.8564C96.6783 19.2014 96.0987 19.3901 95.5026 19.3972C94.8115 19.3843 94.1444 19.1414 93.6072 18.7071C93.1794 18.2792 92.932 17.7041 92.9158 17.0999C92.9132 16.9385 92.9428 16.7783 93.0029 16.6285C93.063 16.4787 93.1523 16.3424 93.2657 16.2274C93.3791 16.1124 93.5143 16.0211 93.6634 15.9587C93.8126 15.8964 93.9726 15.8643 94.1343 15.8643H95.8217C95.0336 16.6317 94.9417 18.5575 95.6332 18.5575C96.7743 18.5575 97.5238 16.8344 97.5238 16.8344C97.9009 16.0139 97.6205 14.7977 97.2433 13.9724L94.5549 7.96354C93.969 6.67564 93.1715 5.49459 92.1953 4.46924H96.9725C96.9338 4.69077 96.9144 4.91523 96.9145 5.14011C96.9105 5.80618 97.0525 6.46507 97.3303 7.07066L99.6319 12.2349L102.05 6.82934C102.385 6.09734 102.483 5.27891 102.33 4.48854L104.859 4.46924Z" fill="white"/>
<path d="M46.6038 20.4204C49.3212 20.4204 49.9208 21.8249 49.9208 23.7313C49.922 23.8872 49.8925 24.0419 49.8339 24.1864C49.7753 24.3309 49.6888 24.4625 49.5792 24.5737C49.4697 24.6848 49.3393 24.7734 49.1954 24.8342C49.0516 24.895 48.8972 24.927 48.741 24.9283H47.0196C47.0196 24.9283 48.4412 21.2602 46.6425 21.2602C44.3554 21.2602 43.664 22.6647 43.664 25.435V28.577C43.6408 29.3772 43.7874 30.1733 44.0943 30.913V30.9516C44.1799 31.1209 44.2802 31.2824 44.3941 31.4342L44.4279 31.4728H39.9312L40.0085 31.3763C40.2164 31.0964 40.7193 30.218 40.7193 28.5529V23.5576C40.7298 22.8185 40.6036 22.0839 40.347 21.3905C40.2513 21.1378 40.1246 20.8979 39.9698 20.6762C41.5838 21.3607 43.4031 21.3815 45.0323 20.7341C45.5439 20.5288 46.0912 20.4271 46.6425 20.4349L46.6038 20.4204Z" fill="white"/>
<path d="M59.0545 31.4391C59.5769 30.5934 59.8251 29.6074 59.7652 28.6156V25.9563C59.7652 23.1715 59.4655 21.2795 57.6667 21.2795C55.3797 21.2795 54.6689 23.1715 54.6689 25.9563V28.6156C54.6463 29.4158 54.7929 30.2118 55.0992 30.9516V30.9902C55.1861 31.1588 55.2863 31.3202 55.399 31.4729L55.4377 31.5066H50.9409L51.0134 31.4149C51.2214 31.135 51.7242 30.2566 51.7242 28.5915V19.5806C51.7242 17.5391 50.9409 16.6848 50.9409 16.6848H52.2706C52.9012 16.6861 53.5055 16.9367 53.9514 17.3817C54.3972 17.8268 54.6483 18.43 54.6496 19.0594V22.129C55.3071 21.1927 56.0711 20.4639 57.6281 20.4639C61.4334 20.4639 62.6519 22.9881 62.6519 26.0963V28.6012C62.6293 29.4013 62.7759 30.1973 63.0822 30.9371V30.9757C63.1691 31.1444 63.2693 31.3058 63.382 31.4584L63.4207 31.497H58.9191L58.9964 31.4005L59.0545 31.4391Z" fill="white"/>
<path d="M75.422 20.6473C74.4648 21.6035 73.6899 22.7254 73.1349 23.9582L68.7832 33.6448C68.5842 34.2065 68.2165 34.6934 67.7302 35.0388C67.2439 35.3843 66.6626 35.5717 66.0658 35.5754C65.3746 35.5624 64.7075 35.3195 64.1703 34.8852C63.7417 34.4579 63.4941 33.8825 63.4789 33.278C63.4763 33.1167 63.5059 32.9564 63.566 32.8066C63.6261 32.6568 63.7155 32.5205 63.8289 32.4055C63.9423 32.2905 64.0775 32.1992 64.2266 32.1368C64.3757 32.0745 64.5357 32.0424 64.6974 32.0424H66.3849C65.5967 32.8098 65.5049 34.7356 66.1963 34.7356C67.3374 34.7356 68.0869 33.0174 68.0869 33.0174C68.464 32.1921 68.1836 30.9758 67.8064 30.1553L65.1325 24.132C64.5466 22.8441 63.7491 21.663 62.7729 20.6377H67.5502C67.5117 20.8593 67.4923 21.0837 67.4922 21.3086C67.4875 21.9747 67.6295 22.6337 67.908 23.2391L70.2096 28.4033L72.6272 22.9978C72.9629 22.2658 73.0609 21.4474 72.9076 20.657L75.422 20.6473Z" fill="white"/>
<path d="M90.7934 31.4778C91.3184 30.6313 91.5684 29.6434 91.509 28.6495V25.5269C91.509 22.7613 91.0254 21.3569 89.8408 21.3569C87.9067 21.3569 87.1766 22.6455 87.1234 25.2662V28.6447C87.1004 29.4465 87.247 30.2441 87.5537 30.9855V31.0241C87.6386 31.1938 87.739 31.3554 87.8535 31.5067L87.8874 31.5454H83.4341L83.5115 31.4537C84.0339 30.608 84.2821 29.622 84.2223 28.6302V25.4738C84.2223 22.7034 83.7145 21.2989 82.5541 21.2989C80.5668 21.2989 79.8173 22.7034 79.8173 25.4738V28.6157C79.7976 29.4157 79.9441 30.2111 80.2477 30.9517V30.9903C80.3365 31.1578 80.4366 31.3191 80.5475 31.473L80.5861 31.5067H76.0894L76.1619 31.415C76.3698 31.1351 76.8775 30.2567 76.8775 28.5916V23.5963C76.8868 22.8569 76.7589 22.1222 76.5004 21.4293C76.4044 21.1776 76.2794 20.9379 76.128 20.7149C76.8805 21.0536 77.6949 21.2336 78.5203 21.2436C79.3456 21.2535 80.1642 21.0933 80.9246 20.7729C81.5271 20.569 82.1597 20.4678 82.7958 20.4736C83.4888 20.4467 84.1744 20.6235 84.7676 20.9822C85.3607 21.3408 85.8352 21.8655 86.1322 22.4911C86.5231 21.8758 87.0628 21.3685 87.7016 21.016C88.3403 20.6634 89.0577 20.4769 89.7876 20.4736C93.0659 20.4736 94.4536 22.9978 94.4536 26.106V28.6109C94.431 29.4111 94.5777 30.2071 94.884 30.9469V30.9855C94.9708 31.1541 95.0711 31.3155 95.1838 31.4681L95.2225 31.5067H90.7257L90.7982 31.4102L90.7934 31.4778Z" fill="white"/>
<path d="M103.379 30.6909C106.227 30.6909 108.176 28.0171 108.176 28.0171C107.407 30.0152 105.14 31.6997 102.374 31.6997C98.6603 31.6997 96.3394 29.1368 96.3394 26.0335C96.3394 22.9301 98.6603 20.4397 102.374 20.4397C105.314 20.4397 107.62 21.9938 108.273 24.5373C108.34 24.7855 108.349 25.0459 108.298 25.298C108.248 25.5501 108.139 25.787 107.981 25.9901C107.823 26.1932 107.62 26.3569 107.388 26.4683C107.156 26.5796 106.901 26.6357 106.643 26.6319H99.4242C99.8546 28.6494 101.092 30.6909 103.399 30.6909H103.379ZM101.373 21.376C99.4388 21.8973 99.1245 23.9774 99.255 25.7922H104.801C104.896 25.7858 104.989 25.76 105.073 25.7162C105.158 25.6724 105.232 25.6117 105.292 25.5379C105.352 25.464 105.396 25.3786 105.421 25.287C105.447 25.1954 105.453 25.0995 105.439 25.0055C105.101 22.8722 103.587 20.7775 101.392 21.376H101.373Z" fill="white"/>
<path d="M114.863 24.8896C117.527 25.3046 119.925 25.9369 119.925 28.3694C119.925 30.8019 117.261 31.7189 114.674 31.7189C112.972 31.7189 110.806 31.1204 110.008 29.8318C109.923 29.6844 109.878 29.5172 109.879 29.347C109.879 29.1768 109.924 29.0097 110.01 28.8627C110.096 28.7157 110.22 28.594 110.368 28.5099C110.516 28.4258 110.684 28.3823 110.854 28.3839H112.445C112.445 30.271 113.683 30.8888 114.674 30.8888C115.666 30.8888 116.981 30.271 116.981 28.3839C116.981 27.5779 115.873 27.2979 114.491 27.0952C111.807 26.6802 109.655 25.879 109.655 23.6878C109.655 21.4097 112.556 20.5072 114.602 20.4348C116.12 20.4348 118.538 21.0719 119.287 22.737C119.335 22.8806 119.348 23.0334 119.326 23.1831C119.304 23.3327 119.246 23.4751 119.159 23.5986C119.071 23.7221 118.956 23.8234 118.822 23.8942C118.688 23.9651 118.539 24.0035 118.388 24.0063H116.681C116.681 21.8731 115.371 21.236 114.636 21.236C113.794 21.236 112.556 21.8731 112.556 23.6492C112.556 24.4359 113.814 24.7158 114.824 24.8654L114.863 24.8896Z" fill="white"/>
<path d="M11.8334 20.323L6.5653 25.5246L7.57651 26.515L12.8772 21.2812C13.3707 21.5987 13.9264 21.81 14.5082 21.9012V31.8857H15.9271V21.9012C16.5314 21.7989 17.1068 21.5711 17.6152 21.2329L22.8262 26.3781L23.8374 25.3877L18.6346 20.2505C19.027 19.7244 19.2895 19.115 19.4011 18.471H29.2604V17.07H19.3767C19.2843 16.4956 19.0703 15.9468 18.7487 15.4596L23.6417 10.6283L22.6386 9.63795L17.7457 14.4692C17.1981 14.0508 16.5534 13.774 15.8701 13.664V4.11426H14.4837V13.6398C13.8315 13.7501 13.2143 14.0093 12.6815 14.3967L7.71515 9.49301L6.70394 10.4754L11.6866 15.3951C11.3406 15.8954 11.1096 16.4642 11.0097 17.0619H1.12598V18.463H11.0097C11.1223 19.1413 11.4055 19.7808 11.8334 20.323ZM15.1932 14.9764C15.7518 14.9812 16.2965 15.1491 16.7586 15.459C17.2207 15.7689 17.5796 16.2069 17.79 16.7179C18.0005 17.2288 18.053 17.7898 17.9411 18.3302C17.8292 18.8706 17.5578 19.3662 17.161 19.7546C16.7643 20.1429 16.2601 20.4066 15.7119 20.5125C15.1636 20.6184 14.5959 20.5616 14.0803 20.3495C13.5646 20.1373 13.1241 19.7792 12.8142 19.3202C12.5044 18.8613 12.339 18.3221 12.339 17.7705C12.339 17.4015 12.413 17.0362 12.5567 16.6956C12.7004 16.3551 12.9111 16.046 13.1764 15.7862C13.4418 15.5264 13.7566 15.3211 14.1028 15.1821C14.4489 15.0432 14.8195 14.9732 15.1932 14.9764Z" fill="#FADCD9" stroke="#FADCD9" stroke-miterlimit="10"/>
</svg>
